HIERARCHY
ROOT Hips
{
  OFFSET 5.79605 93.2874 -478.23
  CHANNELS 6 Xposition Yposition Zposition Zrotation Xrotation Yrotation
  JOINT Spine
  {
    OFFSET 0 4.73261 7.09891
    CHANNELS 3 Zrotation Xrotation Yrotation
    JOINT Spine1
    {
      OFFSET 0 0 9.46522
      CHANNELS 3 Zrotation Xrotation Yrotation
      JOINT Spine2
      {
        OFFSET 0 0 9.46522
        CHANNELS 3 Zrotation Xrotation Yrotation
        JOINT Spine3
        {
          OFFSET 0 0 9.46522
          CHANNELS 3 Zrotation Xrotation Yrotation
          JOINT Neck
          {
            OFFSET 0 -3.54946 24.8462
            CHANNELS 3 Zrotation Xrotation Yrotation
            JOINT Head
            {
              OFFSET 0 0 13.0147
              CHANNELS 3 Zrotation Xrotation Yrotation
              End Site
              {
                OFFSET 0 0 15.3218
              }
            }
          }
          JOINT RightShoulder
          {
            OFFSET -3.19949 -5.33248 17.2772
            CHANNELS 3 Zrotation Xrotation Yrotation
            JOINT RightArm
            {
              OFFSET 15.8908 0 0
              CHANNELS 3 Zrotation Xrotation Yrotation
              JOINT RightForeArm
              {
                OFFSET 29.5436 0 0
                CHANNELS 3 Zrotation Xrotation Yrotation
                JOINT RightHand
                {
                  OFFSET 23.2652 0 0
                  CHANNELS 3 Zrotation Xrotation Yrotation
                  JOINT RightHandEnd
                  {
                    OFFSET 6.96115 0 0
                    CHANNELS 3 Zrotation Xrotation Yrotation
                    End Site
                    {
                      OFFSET 6.96115 0 0
                    }
                  }
                  JOINT RightHandThumb1
                  {
                    OFFSET 2.78446 -4.64077 1.85631
                    CHANNELS 3 Zrotation Xrotation Yrotation
                    JOINT RightHandThumb2
                    {
                      OFFSET 6.96115 0 0
                      CHANNELS 3 Zrotation Xrotation Yrotation
                      End Site
                      {
                        OFFSET 0 0 0
                      }
                    }
                  }
                }
              }
            }
          }
          JOINT LeftShoulder
          {
            OFFSET 3.19949 -5.33248 17.2772
            CHANNELS 3 Zrotation Xrotation Yrotation
            JOINT LeftArm
            {
              OFFSET 15.8908 0 0
              CHANNELS 3 Zrotation Xrotation Yrotation
              JOINT LeftForeArm
              {
                OFFSET 29.5436 0 0
                CHANNELS 3 Zrotation Xrotation Yrotation
                JOINT LeftHand
                {
                  OFFSET 23.2652 0 0
                  CHANNELS 3 Zrotation Xrotation Yrotation
                  JOINT LeftHandEnd
                  {
                    OFFSET 6.96115 0 0
                    CHANNELS 3 Zrotation Xrotation Yrotation
                    End Site
                    {
                      OFFSET 6.96115 0 0
                    }
                  }
                  JOINT LeftHandThumb1
                  {
                    OFFSET 2.78446 -4.64077 -1.85631
                    CHANNELS 3 Zrotation Xrotation Yrotation
                    JOINT LeftHandThumb2
                    {
                      OFFSET 6.96115 0 0
                      CHANNELS 3 Zrotation Xrotation Yrotation
                      End Site
                      {
                        OFFSET 0 0 0
                      }
                    }
                  }
                }
              }
            }
          }
        }
      }
    }
  }
  JOINT RightUpLeg
  {
    OFFSET -9.49182 0 -2.77289
    CHANNELS 3 Zrotation Xrotation Yrotation
    JOINT RightLeg
    {
      OFFSET 41.2118 0 0
      CHANNELS 3 Zrotation Xrotation Yrotation
      JOINT RightFoot
      {
        OFFSET 45.6091 0 0
        CHANNELS 3 Zrotation Xrotation Yrotation
        JOINT RightToeBase
        {
          OFFSET 17.0969 0 0
          CHANNELS 3 Zrotation Xrotation Yrotation
          End Site
          {
            OFFSET 7.67878 0 0
          }
        }
      }
    }
  }
  JOINT LeftUpLeg
  {
    OFFSET 9.49182 0 -2.77289
    CHANNELS 3 Zrotation Xrotation Yrotation
    JOINT LeftLeg
    {
      OFFSET 41.2118 0 0
      CHANNELS 3 Zrotation Xrotation Yrotation
      JOINT LeftFoot
      {
        OFFSET 45.6091 0 0
        CHANNELS 3 Zrotation Xrotation Yrotation
        JOINT LeftToeBase
        {
          OFFSET 17.0969 0 0
          CHANNELS 3 Zrotation Xrotation Yrotation
          End Site
          {
            OFFSET 7.67878 0 0
          }
        }
      }
    }
  }
}
MOTION
Frames:	7
Frame Time:	0.00833333
0.00577587 94.3573 -0.0821572 -166.265 -85.8123 -166.271 -0.163858 -7.54157 2.25277 -0.0319742 6.0012 1.27658 -8.14065 7.86421 -2.02182 -0.284395 0.655035 -1.3983 -1.70185 8.44221 -1.96519 6.35691 -20.3479 3.49894 -9.32134 10.4295 -176.883 -27.8956 -26.7293 -75.2012 -109.836 -3.75783e-12 1.80974e-12 -3.89335 -13.8429 35.9668 3.58283e-08 -90 3.58283e-08 165 10 -180 1.07085e-11 1.1937e-09 -5.14763e-10 -6.24868 4.88886 -9.36503 -32.8081 -14.4265 76.359 -115.549 6.64736e-13 -1.7598e-11 -11.4367 4.92679 -18.6171 -5.97139e-08 90 5.97139e-08 165 10 -180 7.6214e-10 -8.19667e-10 8.73255e-10 -12.1029 -18.6505 86.8129 30.7809 -0.00700892 4.79071e-14 -75.1229 -0.537156 4.61414 -20.8554 -9.39724e-11 -3.63855e-11 2.30593 0.224742 90.9792 51.942 -0.038353 1.47101e-13 -62.7922 -6.68133 0.102499 -23.8046 -1.91159e-11 7.37094e-12 
0.00577587 94.3573 -0.0821572 -162.15 -85.8387 -162.38 -0.166033 -7.55556 2.41403 -0.0310121 6.00238 1.30633 -8.29079 7.84163 -1.99208 -0.307432 0.642519 -1.40616 -1.62686 8.22353 -2.05296 6.70284 -20.1719 3.5833 -9.33368 10.5101 -176.582 -27.8072 -26.9973 -75.1765 -109.54 -3.65525e-12 5.76317e-12 -3.88616 -13.5512 36.3277 -1.19428e-08 -90 -1.19428e-08 165 10 -180 2.45213e-10 -7.89284e-10 -4.35004e-10 -6.40161 4.70918 -9.58459 -32.8755 -14.7667 76.0432 -115.985 2.16278e-13 -2.22003e-11 -11.3834 4.78304 -18.4484 -2.38856e-08 90 2.38856e-08 165 10 -180 8.31973e-10 -9.13086e-10 1.05294e-09 -12.0129 -18.9328 87.0281 29.5897 -0.00489052 -3.0411e-05 -73.3402 -0.33248 4.1018 -21.0027 4.53159e-12 -3.33767e-11 2.60827 1.06853 91.4497 50.2815 -0.035757 -3.51505e-05 -63.014 -6.42061 0.0673577 -23.8876 -2.19585e-11 8.53263e-12 
0.223972 94.7345 -1.49009 -158.214 -85.8476 -158.67 -0.165595 -7.57218 2.57906 -0.0296216 6.00082 1.33871 -8.449 7.81937 -1.96129 -0.331134 0.630658 -1.41475 -1.55826 8.00884 -2.14584 7.04757 -19.9827 3.66867 -9.35606 10.5851 -176.289 -27.7099 -27.295 -75.1527 -109.225 -3.56779e-12 1.01428e-11 -3.8668 -13.2396 36.7167 1.19428e-08 -90 1.19428e-08 165 10 -180 5.12826e-10 -3.02133e-09 -3.55634e-10 -6.56065 4.52115 -9.79799 -32.9622 -15.1071 75.7135 -116.406 -2.3218e-13 -2.75277e-11 -11.334 4.6669 -18.2949 5.97139e-08 90 -5.97139e-08 165 10 -180 9.10367e-10 -1.02156e-09 1.25739e-09 -11.9303 -19.1959 87.2411 28.3878 -0.00309729 1.32074e-05 -71.5348 -0.201805 3.66164 -21.1788 1.12021e-10 -3.07496e-11 2.90313 1.91734 91.909 48.6527 -0.0334773 6.80686e-05 -63.2258 -6.23292 0.0664172 -23.8492 -2.6137e-11 1.02016e-11 
0.439267 95.0663 -2.93295 -153.867 -85.8301 -154.544 -0.170265 -7.58356 2.73655 -0.0290898 6.00474 1.36582 -8.59101 7.79624 -1.93277 -0.353511 0.617497 -1.4219 -1.47802 7.78583 -2.22749 7.39272 -19.8185 3.74834 -9.35965 10.671 -175.98 -27.6292 -27.5331 -75.1256 -108.95 -3.40399e-12 1.36605e-11 -3.87746 -12.9675 37.048 2.38856e-08 -90 2.38856e-08 165 10 -180 7.1421e-10 -4.75523e-09 -2.7549e-10 -6.70941 4.35159 -10.025 -33.0164 -15.4459 75.4087 -116.857 -5.7568e-13 -3.14239e-11 -11.2756 4.49601 -18.1107 3.58283e-08 90 -3.58283e-08 165 10 -180 9.71617e-10 -1.09993e-09 1.41232e-09 -11.829 -19.4962 87.4611 27.2066 -0.000653114 4.0944e-05 -69.7683 0.0286576 3.05886 -21.2973 2.01527e-10 -2.66276e-11 3.19267 2.76362 92.3782 46.9594 -0.0305657 0.000120334 -63.4568 -5.89882 0.000178511 -24.0534 -2.76263e-11 1.08544e-11 
0.660376 95.3385 -4.40646 -148.588 -85.7641 -149.473 -0.187808 -7.58187 2.87519 -0.0307098 6.02231 1.37978 -8.69255 7.7711 -1.90982 -0.372568 0.60108 -1.42543 -1.36805 7.54219 -2.2814 7.74021 -19.7174 3.81616 -9.31584 10.7847 -175.63 -27.591 -27.6221 -75.0916 -108.776 -3.41592e-12 1.50981e-11 -3.95879 -12.7946 37.2362 1.19428e-08 -90 1.19428e-08 165 10 -180 7.50031e-10 -5.24377e-09 -1.93384e-10 -6.83143 4.22729 -10.2852 -32.9857 -15.7823 75.1681 -117.387 -6.55194e-13 -3.18342e-11 -11.1945 4.18817 -17.8493 9.54166e-15 90 -0 165 10 -180 9.90003e-10 -1.10306e-09 1.44347e-09 -11.682 -19.8898 87.698 26.0771 0.00342136 5.51806e-12 -68.0953 0.519668 2.04838 -21.2722 2.46092e-10 -1.94952e-11 3.47853 3.60006 92.879 45.105 -0.0260629 -5.0869e-13 -63.734 -5.1978 -0.228464 -24.8647 -2.2376e-11 9.02721e-12 
0.875375 95.5445 -5.90654 -142.091 -85.6188 -143.197 -0.220657 -7.56407 3.01176 -0.0350138 6.05797 1.38168 -8.749 7.73613 -1.89314 -0.388672 0.57969 -1.42512 -1.21198 7.26421 -2.30189 8.10847 -19.7094 3.86855 -9.21277 10.9511 -175.206 -27.6062 -27.5245 -75.0496 -108.717 -4.08781e-12 1.38291e-11 -4.16775 -12.765 37.2241 -0 -90 -0 165 10 -180 4.83245e-10 -3.48565e-09 -1.0972e-10 -6.92037 4.15456 -10.623 -32.83 -16.1485 75.0184 -118.043 -5.08889e-13 -2.59915e-11 -11.0585 3.74541 -17.4257 0 90 -0 165 10 -180 9.51021e-10 -9.88399e-10 1.26722e-09 -11.513 -20.3797 87.9821 24.8134 0.0101187 -0.000153706 -66.3611 1.41349 0.331309 -20.989 2.37818e-10 -5.95241e-12 3.80273 4.46842 93.4638 42.9748 -0.018752 -0.000256267 -63.9417 -3.87608 -0.679119 -26.6219 -8.80179e-12 4.19833e-12 
1.0974 95.6756 -7.42482 -135.175 -85.3808 -136.51 -0.264621 -7.53471 3.14571 -0.0412442 6.1066 1.37468 -8.77268 7.69451 -1.88101 -0.402584 0.554765 -1.42201 -1.02312 6.96203 -2.29769 8.4911 -19.7675 3.9106 -9.06797 11.1554 -174.73 -27.66 -27.2926 -75.0019 -108.74 -5.24394e-12 1.06628e-11 -4.4664 -12.8369 37.0685 -1.19428e-08 -90 -1.19428e-08 165 10 -180 3.69103e-12 -1.46735e-10 -2.48878e-11 -6.98537 4.11928 -11.0146 -32.5848 -16.5347 74.9349 -118.786 -2.76708e-13 -1.57469e-11 -10.8811 3.20471 -16.8879 -3.58283e-08 90 3.58283e-08 165 10 -180 8.7095e-10 -7.90222e-10 9.44466e-10 -11.3243 -20.9394 88.3003 23.4632 0.0186783 -0.000266355 -64.5573 2.55376 -1.90916 -20.5244 1.91447e-10 1.23437e-11 4.1484 5.35943 94.1051 40.6486 -0.00945086 -0.000385561 -64.0922 -2.11499 -1.28563 -29.0515 1.10051e-11 -2.17828e-12 
